<svg width="500" height="500" viewBox="0 0 500 500" fill="none" xmlns="http://www.w3.org/2000/svg">
<path d="M260.255 210.843L261.53 212.464L263.557 212.847L298.677 219.488L270.596 241.707L268.989 242.979L268.606 244.992L261.934 280.005L239.739 252.033L238.474 250.438L236.477 250.051L201.418 243.262L229.407 221.192L231.016 219.923L231.403 217.911L238.161 182.745L260.255 210.843Z" fill="#D3ED7D" stroke="#AEB9F4" stroke-width="11"/>
<path d="M157.5 350H88C82.4772 350 78 354.477 78 360V418C78 423.523 82.4772 428 88 428H412.5C418.023 428 422.5 423.523 422.5 418V360C422.5 354.477 418.023 350 412.5 350H343C337.477 350 333 345.523 333 340V278.5C333 272.977 328.523 268.5 323 268.5H177.5C171.977 268.5 167.5 272.977 167.5 278.5V340C167.5 345.523 163.023 350 157.5 350Z" fill="#B13AA6"/>
<path d="M157.5 350H88C82.4772 350 78 354.477 78 360V418C78 423.523 82.4772 428 88 428H412.5C418.023 428 422.5 423.523 422.5 418V360C422.5 354.477 418.023 350 412.5 350H343C337.477 350 333 345.523 333 340V278.5C333 272.977 328.523 268.5 323 268.5H177.5C171.977 268.5 167.5 272.977 167.5 278.5V340C167.5 345.523 163.023 350 157.5 350Z" fill="url(#paint0_linear_2_2)"/>
<path d="M411.5 72H88.5C82.9772 72 78.5 76.4771 78.5 82V258C78.5 263.523 82.9772 268 88.5 268H156.5C162.023 268 166.5 263.523 166.5 258V193.5C166.5 187.977 170.977 183.5 176.5 183.5H324C329.523 183.5 334 187.977 334 193.5V258C334 263.523 338.477 268 344 268H411.5C417.023 268 421.5 263.523 421.5 258V82C421.5 76.4772 417.023 72 411.5 72Z" fill="#B13AA6"/>
<path d="M411.5 72H88.5C82.9772 72 78.5 76.4771 78.5 82V258C78.5 263.523 82.9772 268 88.5 268H156.5C162.023 268 166.5 263.523 166.5 258V193.5C166.5 187.977 170.977 183.5 176.5 183.5H324C329.523 183.5 334 187.977 334 193.5V258C334 263.523 338.477 268 344 268H411.5C417.023 268 421.5 263.523 421.5 258V82C421.5 76.4772 417.023 72 411.5 72Z" fill="url(#paint1_linear_2_2)"/>
<defs>
<linearGradient id="paint0_linear_2_2" x1="423" y1="91.5" x2="184.5" y2="468.5" gradientUnits="userSpaceOnUse">
<stop offset="0.600962" stop-color="#B13AA6" stop-opacity="0"/>
<stop offset="1" stop-color="#64205E"/>
</linearGradient>
<linearGradient id="paint1_linear_2_2" x1="491.5" y1="-12" x2="111.5" y2="405.5" gradientUnits="userSpaceOnUse">
<stop stop-color="#B13AA6" stop-opacity="0"/>
<stop offset="1" stop-color="#64205E"/>
</linearGradient>
</defs>
</svg>
